<svg xmlns="http://www.w3.org/2000/svg" width="561.188" height="205.268" viewBox="0 0 561.188 205.268">
  <g id="_404" data-name="404" transform="translate(-886.113 -778.395)">
    <path id="Tracé_11727" data-name="Tracé 11727" d="M1166.707,778.471a68.4,68.4,0,0,0-68.4,68.4v68.4a68.4,68.4,0,1,0,136.794,0v-68.4A68.4,68.4,0,0,0,1166.707,778.471Zm21.567,136.795a21.567,21.567,0,0,1-43.134,0v-68.4a21.567,21.567,0,0,1,43.134,0Z" fill="#3a8bff"/>
    <circle id="Ellipse_21" data-name="Ellipse 21" cx="21.907" cy="21.907" r="21.907" transform="translate(1143.785 938.302)" fill="#25e8bc"/>
    <path id="Tracé_11728" data-name="Tracé 11728" d="M1000.322,890.326h0a4.031,4.031,0,0,1-4-3.467,24.867,24.867,0,0,0-49.243,0,4.031,4.031,0,0,1-4,3.467h-3.419a6.724,6.724,0,0,1-6.725-6.724V801.81A23.415,23.415,0,0,0,909.528,778.4h0a23.415,23.415,0,0,0-23.415,23.415V916.638a23.416,23.416,0,0,0,23.415,23.416h37.313v20.194a23.415,23.415,0,0,0,23.415,23.415h2.9a23.415,23.415,0,0,0,23.415-23.415V940.054h3.754a23.416,23.416,0,0,0,23.415-23.416v-2.9A23.415,23.415,0,0,0,1000.322,890.326Z" fill="#3a8bff"/>
    <circle id="Ellipse_22" data-name="Ellipse 22" cx="21.733" cy="21.733" r="21.733" transform="translate(887.795 779.843)" fill="#25e8bc"/>
    <path id="Tracé_11729" data-name="Tracé 11729" d="M1423.886,890.326h0a4.032,4.032,0,0,1-4-3.467,24.867,24.867,0,0,0-49.243,0,4.03,4.03,0,0,1-4,3.467h-3.419a6.723,6.723,0,0,1-6.724-6.724V801.81a23.415,23.415,0,0,0-23.416-23.415h0a23.415,23.415,0,0,0-23.414,23.415V916.638a23.416,23.416,0,0,0,23.415,23.416H1370.4v20.194a23.415,23.415,0,0,0,23.415,23.415h2.9a23.415,23.415,0,0,0,23.415-23.415V940.054h3.753a23.416,23.416,0,0,0,23.416-23.416v-2.9A23.416,23.416,0,0,0,1423.886,890.326Z" fill="#3a8bff"/>
    <circle id="Ellipse_23" data-name="Ellipse 23" cx="21.733" cy="21.733" r="21.733" transform="translate(1311.359 779.843)" fill="#25e8bc"/>
  </g>
</svg>
