<?xml version="1.0" encoding="utf-8"?>
<!-- Generator: Adobe Illustrator 24.0.2, SVG Export Plug-In . SVG Version: 6.00 Build 0)  -->
<svg version="1.1" id="Calque_1" xmlns="http://www.w3.org/2000/svg" xmlns:xlink="http://www.w3.org/1999/xlink" x="0px" y="0px"
	 viewBox="0 0 102.9 100.9" style="enable-background:new 0 0 102.9 100.9;" xml:space="preserve">
<style type="text/css">
	.st0{fill:#140A0F;}
</style>
<title>co2-bleu</title>
<path class="st0" d="M60,61.8c-0.6-0.9-1.4-1.7-2.4-2.2c-2.3-1.1-4.9-1.1-7.1,0c-1,0.5-1.8,1.3-2.4,2.2c-0.6,1-1.1,2-1.4,3.1
	c-0.3,1.2-0.4,2.4-0.4,3.6c0,1.2,0.1,2.3,0.4,3.5c0.3,1.1,0.7,2.1,1.3,3c0.6,0.9,1.4,1.6,2.4,2.2c2.3,1.1,4.9,1.1,7.1,0
	c1-0.5,1.8-1.2,2.4-2.2c0.6-0.9,1.1-1.9,1.3-3c0.3-1.1,0.4-2.3,0.4-3.5c0-1.2-0.2-2.4-0.5-3.6C61,63.9,60.6,62.8,60,61.8z"/>
<path class="st0" d="M86.7,31.1c0-3.4-2.8-6.2-6.2-6.2H69.3c3.4-9.7-1.7-20.4-11.5-23.8S37.4,2.8,34,12.6c-1.4,4-1.4,8.4,0,12.4
	H21.5c-3.4,0-6.2,2.8-6.2,6.2L0.1,94.7c0,3.4,2.8,6.2,6.2,6.2h90.8c3.4,0,6.2-2.8,6.2-6.2L86.7,31.1z M35.8,76.5
	c-0.6,1.4-1.5,2.6-2.6,3.7c-1.1,1-2.4,1.8-3.8,2.3c-1.5,0.5-3.2,0.8-4.8,0.8c-2,0-4-0.4-5.9-1.1c-1.7-0.7-3.2-1.8-4.4-3.1
	c-1.2-1.4-2.1-2.9-2.7-4.7c-0.7-1.9-1-3.8-1-5.8c0-2,0.3-4,1-5.9c0.6-1.7,1.5-3.4,2.7-4.8c1.2-1.4,2.7-2.4,4.4-3.2
	c1.8-0.8,3.8-1.2,5.9-1.2c1.5,0,3,0.2,4.4,0.7c1.4,0.4,2.6,1.1,3.7,2c1.1,0.9,2,2,2.7,3.2c0.7,1.4,1.2,2.8,1.3,4.4h-6
	c-0.1-0.7-0.3-1.4-0.7-2c-0.4-0.6-0.8-1.1-1.4-1.6c-0.6-0.4-1.2-0.8-1.9-1c-0.7-0.2-1.5-0.4-2.2-0.4c-1.2,0-2.5,0.2-3.6,0.8
	c-1,0.5-1.8,1.3-2.4,2.2c-0.6,1-1.1,2-1.4,3.2c-0.3,1.2-0.4,2.4-0.4,3.6c0,1.2,0.1,2.3,0.4,3.5c0.3,1.1,0.7,2.1,1.3,3
	c0.6,0.9,1.4,1.6,2.4,2.2c1.1,0.6,2.3,0.8,3.6,0.8c1.7,0.1,3.3-0.5,4.5-1.7c1.1-1.3,1.8-2.9,2-4.6h6C36.9,73.4,36.5,75,35.8,76.5z
	 M51.7,11.6c4,0,7.2,3.2,7.2,7.2S55.6,26,51.7,26s-7.2-3.2-7.2-7.2v0C44.5,14.8,47.7,11.6,51.7,11.6z M67,74.3
	c-0.6,1.7-1.5,3.3-2.8,4.7c-1.2,1.3-2.7,2.4-4.4,3.1c-3.8,1.5-8,1.5-11.7,0c-1.7-0.7-3.2-1.8-4.4-3.1c-1.2-1.4-2.2-2.9-2.8-4.7
	c-0.7-1.9-1-3.8-1-5.8c0-2,0.3-4,1-5.9c0.6-1.7,1.5-3.4,2.7-4.8c1.2-1.4,2.7-2.4,4.4-3.2c3.8-1.5,8-1.5,11.7,0
	c1.7,0.7,3.2,1.8,4.4,3.2c1.2,1.4,2.2,3,2.8,4.7c0.7,1.9,1,3.9,1,5.9C68,70.5,67.7,72.5,67,74.3z M90.7,82.6H70.3
	c0-1.4,0.2-2.9,0.7-4.2c0.5-1.2,1.1-2.2,1.9-3.2c0.8-1,1.8-1.8,2.8-2.6c1.1-0.8,2.2-1.6,3.4-2.4c0.6-0.4,1.3-0.9,1.9-1.3
	c0.7-0.4,1.3-0.9,1.9-1.4c0.6-0.5,1-1.1,1.4-1.8c0.4-0.7,0.6-1.5,0.6-2.3c0.1-1.2-0.4-2.3-1.2-3.2c-0.8-0.8-1.9-1.2-3-1.1
	c-0.7,0-1.5,0.2-2.1,0.6c-0.6,0.4-1,0.9-1.4,1.5c-0.3,0.6-0.6,1.3-0.7,2.1c-0.1,0.7-0.2,1.5-0.2,2.2h-5.4c-0.1-1.5,0.1-3,0.6-4.4
	c0.4-1.3,1-2.5,1.9-3.6c0.9-1,2-1.9,3.2-2.4c1.4-0.6,2.9-0.9,4.4-0.9c1.2,0,2.5,0.2,3.6,0.6c1.1,0.4,2.1,0.9,3,1.7
	c0.9,0.8,1.6,1.7,2.1,2.7c0.5,1.1,0.8,2.4,0.8,3.7c0,1.2-0.2,2.5-0.7,3.6c-0.4,1-1,1.9-1.8,2.7c-0.8,0.8-1.6,1.5-2.5,2.1l-2.8,1.9
	c-1,0.6-1.9,1.3-2.8,2c-0.9,0.7-1.7,1.6-2.4,2.5h13.1L90.7,82.6z"/>
</svg>
