<svg id="Calque_1" data-name="Calque 1" xmlns="http://www.w3.org/2000/svg" viewBox="0 0 102.93 100.93"><defs><style>.cls-1{fill:#264abd;}</style></defs><title>co2-bleu</title><path class="cls-1" d="M60,61.85a6.74,6.74,0,0,0-2.38-2.18,8.27,8.27,0,0,0-7.14,0,6.74,6.74,0,0,0-2.38,2.18A9.53,9.53,0,0,0,46.72,65a15.37,15.37,0,0,0-.42,3.61,14.27,14.27,0,0,0,.42,3.47,9.37,9.37,0,0,0,1.33,3,6.78,6.78,0,0,0,2.38,2.16,8.27,8.27,0,0,0,7.14,0A6.78,6.78,0,0,0,60,75.09a9.37,9.37,0,0,0,1.33-3,14.27,14.27,0,0,0,.42-3.47A15.37,15.37,0,0,0,61.28,65,9.53,9.53,0,0,0,60,61.85Z"/><path class="cls-1" d="M86.68,31.13a6.21,6.21,0,0,0-6.19-6.19H69.31a18.7,18.7,0,1,0-35.29,0H21.5a6.21,6.21,0,0,0-6.19,6.19L.08,94.72a6.2,6.2,0,0,0,6.19,6.19H97.06a6.2,6.2,0,0,0,6.19-6.19ZM35.82,76.52a11.54,11.54,0,0,1-2.62,3.65,11.14,11.14,0,0,1-3.81,2.3,13.89,13.89,0,0,1-4.8.79,14.57,14.57,0,0,1-5.85-1.13A12.56,12.56,0,0,1,14.35,79a13.76,13.76,0,0,1-2.73-4.67,17,17,0,0,1-1-5.77,17.54,17.54,0,0,1,1-5.89,14,14,0,0,1,2.73-4.75,12.57,12.57,0,0,1,4.39-3.17,14.24,14.24,0,0,1,5.85-1.15,14.31,14.31,0,0,1,4.43.67,12,12,0,0,1,3.73,2,10.65,10.65,0,0,1,2.72,3.19,11.61,11.61,0,0,1,1.35,4.37h-6a5,5,0,0,0-.71-2,6.28,6.28,0,0,0-1.39-1.57,6.64,6.64,0,0,0-1.88-1.05,6.57,6.57,0,0,0-2.21-.37,7.3,7.3,0,0,0-3.57.81,6.74,6.74,0,0,0-2.38,2.18A9.53,9.53,0,0,0,17.31,65a15.37,15.37,0,0,0-.42,3.61,14.27,14.27,0,0,0,.42,3.47,9.37,9.37,0,0,0,1.33,3A6.78,6.78,0,0,0,21,77.25a7.3,7.3,0,0,0,3.57.81,5.78,5.78,0,0,0,4.47-1.74,8.12,8.12,0,0,0,2-4.61h6A14.24,14.24,0,0,1,35.82,76.52Zm15.85-64.9a7.17,7.17,0,1,1-7.17,7.17A7.17,7.17,0,0,1,51.67,11.62ZM67,74.35A14,14,0,0,1,64.24,79a12.57,12.57,0,0,1-4.37,3.11,15.76,15.76,0,0,1-11.72,0A12.46,12.46,0,0,1,43.76,79,14,14,0,0,1,41,74.35a17.2,17.2,0,0,1-1-5.77,17.79,17.79,0,0,1,1-5.89,14.22,14.22,0,0,1,2.74-4.75,12.48,12.48,0,0,1,4.39-3.17,15.51,15.51,0,0,1,11.72,0,12.59,12.59,0,0,1,4.37,3.17A14.22,14.22,0,0,1,67,62.69a17.79,17.79,0,0,1,1,5.89A17.2,17.2,0,0,1,67,74.35Zm23.69,8.28H70.27A11.64,11.64,0,0,1,71,78.42a11.45,11.45,0,0,1,1.89-3.19,16.25,16.25,0,0,1,2.8-2.6c1.07-.8,2.2-1.6,3.39-2.42Q80,69.57,81,68.92a13.6,13.6,0,0,0,1.88-1.45,7.66,7.66,0,0,0,1.43-1.79,4.44,4.44,0,0,0,.57-2.26,4.2,4.2,0,0,0-1.17-3.16,4.15,4.15,0,0,0-3-1.13,3.69,3.69,0,0,0-2.09.58,4.33,4.33,0,0,0-1.37,1.51,7.19,7.19,0,0,0-.73,2.06,12.23,12.23,0,0,0-.22,2.24H70.91a13.22,13.22,0,0,1,.55-4.42,10.23,10.23,0,0,1,1.91-3.57,8.47,8.47,0,0,1,3.19-2.38A10.81,10.81,0,0,1,81,54.29a11.06,11.06,0,0,1,3.63.6,9.18,9.18,0,0,1,3,1.7,8.13,8.13,0,0,1,2.09,2.74A8.49,8.49,0,0,1,90.51,63a8.74,8.74,0,0,1-.68,3.61,9.42,9.42,0,0,1-1.78,2.68,15.42,15.42,0,0,1-2.52,2.13l-2.84,1.88c-1,.62-1.88,1.29-2.78,2a12.3,12.3,0,0,0-2.38,2.5H90.67Z"/></svg>