<svg id="CO2" xmlns="http://www.w3.org/2000/svg" width="24.467" height="23.91" viewBox="0 0 24.467 23.91">
  <g id="Groupe_69" data-name="Groupe 69">
    <path id="Tracé_4" data-name="Tracé 4" d="M129.722,204.523a1.726,1.726,0,0,0-.607-.556,2.1,2.1,0,0,0-1.82,0,1.717,1.717,0,0,0-.606.556,2.435,2.435,0,0,0-.339.794,3.948,3.948,0,0,0-.106.92,3.672,3.672,0,0,0,.106.885,2.387,2.387,0,0,0,.339.773,1.732,1.732,0,0,0,.606.551,2.1,2.1,0,0,0,1.82,0,1.741,1.741,0,0,0,.607-.551,2.392,2.392,0,0,0,.338-.773,3.685,3.685,0,0,0,.106-.885,3.963,3.963,0,0,0-.106-.92A2.44,2.44,0,0,0,129.722,204.523Z" transform="translate(-115.425 -190.067)" fill="#4e4e4e"/>
    <path id="Tracé_5" data-name="Tracé 5" d="M100.558,152.354a1.472,1.472,0,0,0-1.468-1.468H96.438a4.434,4.434,0,1,0-8.367,0H85.1a1.472,1.472,0,0,0-1.468,1.468l-3.611,15.081a1.472,1.472,0,0,0,1.468,1.468H103.02a1.472,1.472,0,0,0,1.468-1.468ZM88.5,163.117a2.722,2.722,0,0,1-.621.866,2.635,2.635,0,0,1-.9.546,3.31,3.31,0,0,1-1.139.188,3.444,3.444,0,0,1-1.388-.268,2.972,2.972,0,0,1-1.04-.739,3.267,3.267,0,0,1-.65-1.106,4.065,4.065,0,0,1-.226-1.37,4.205,4.205,0,0,1,.226-1.4,3.358,3.358,0,0,1,.65-1.125,2.971,2.971,0,0,1,1.04-.753,3.6,3.6,0,0,1,2.437-.113,2.842,2.842,0,0,1,.885.466,2.519,2.519,0,0,1,.645.757,2.715,2.715,0,0,1,.32,1.035H87.3a1.209,1.209,0,0,0-.169-.466,1.493,1.493,0,0,0-.329-.372,1.544,1.544,0,0,0-.969-.339,1.727,1.727,0,0,0-.847.193,1.6,1.6,0,0,0-.565.518,2.267,2.267,0,0,0-.315.739,3.676,3.676,0,0,0-.1.856,3.418,3.418,0,0,0,.1.824,2.222,2.222,0,0,0,.315.72,1.613,1.613,0,0,0,.565.513,1.725,1.725,0,0,0,.847.193,1.367,1.367,0,0,0,1.059-.414,1.917,1.917,0,0,0,.466-1.092h1.43A3.409,3.409,0,0,1,88.5,163.117Zm3.757-15.388a1.7,1.7,0,1,1-1.7,1.7A1.7,1.7,0,0,1,92.255,147.729ZM95.886,162.6a3.266,3.266,0,0,1-.649,1.106,2.988,2.988,0,0,1-1.035.739,3.738,3.738,0,0,1-2.781,0,2.973,2.973,0,0,1-1.04-.739,3.27,3.27,0,0,1-.649-1.106,4.059,4.059,0,0,1-.226-1.37,4.2,4.2,0,0,1,.226-1.4,3.361,3.361,0,0,1,.649-1.125,2.972,2.972,0,0,1,1.04-.753,3.678,3.678,0,0,1,2.781,0,2.987,2.987,0,0,1,1.035.753,3.357,3.357,0,0,1,.649,1.125,4.2,4.2,0,0,1,.226,1.4A4.059,4.059,0,0,1,95.886,162.6Zm5.618,1.962H96.667a2.744,2.744,0,0,1,.165-1,2.642,2.642,0,0,1,.447-.757,3.924,3.924,0,0,1,.664-.617q.381-.282.8-.574.216-.15.461-.306a3.058,3.058,0,0,0,.447-.344,1.826,1.826,0,0,0,.339-.423,1.051,1.051,0,0,0,.137-.537.992.992,0,0,0-.278-.748.98.98,0,0,0-.71-.268.863.863,0,0,0-.494.136,1.014,1.014,0,0,0-.325.358,1.64,1.64,0,0,0-.174.489,2.81,2.81,0,0,0-.052.532h-1.28a3.15,3.15,0,0,1,.132-1.049,2.434,2.434,0,0,1,.452-.847,2.049,2.049,0,0,1,.757-.565,2.57,2.57,0,0,1,1.05-.2,2.622,2.622,0,0,1,.861.141,2.215,2.215,0,0,1,.72.4,1.924,1.924,0,0,1,.494.649,1.991,1.991,0,0,1,.184.866,2.088,2.088,0,0,1-.16.856,2.252,2.252,0,0,1-.424.635,3.611,3.611,0,0,1-.6.5q-.334.226-.673.447t-.659.475a2.98,2.98,0,0,0-.565.593H101.5Z" transform="translate(-80.021 -144.993)" fill="#4e4e4e"/>
  </g>
</svg>
