<svg id="Calque_1" data-name="Calque 1" xmlns="http://www.w3.org/2000/svg" viewBox="0 0 323.81 500.31"><defs><style>.cls-1{fill:#284cbd;}</style></defs><title>fleches</title><path class="cls-1" d="M267,97.94c-6.72-7.3-12.63-13.75-18.58-20.17Q225.35,52.84,202.2,28c-3.42-3.66-5.82-7.66-5.65-12.86.2-6.4,3-11.19,8.86-13.92,5.16-2.41,10.64-1.11,15.34,3.92,12.3,13.13,24.45,26.41,36.64,39.64Q283.3,72.85,309.17,101c7.54,8.2,7.59,16.55,0,24.83q-43.33,47.07-86.75,94.05c-6.69,7.24-14.69,8.47-20.59,3.38-6.71-5.8-7.36-16.11-.86-23.27,15-16.53,30.28-32.81,45.45-49.19l19.48-21c-1.94-1.7-4-1-5.82-1q-121.21-.06-242.44,0c-10.45,0-15.88-4-17.34-12.73-1.73-10.38,4.92-18,15.88-18q99.47,0,198.94,0Z"/><path class="cls-1" d="M57,402.68l54,58.28c4,4.28,8,8.53,11.87,12.86,3.54,3.91,5.32,8.5,4.38,13.77-1,5.78-4,10.54-9.82,12.14-5.66,1.55-10.74,0-14.89-4.59-11.32-12.45-22.8-24.77-34.2-37.15-17.61-19.12-34.93-38.52-52.95-57.25a19,19,0,0,1-.17-26.61C43.68,343.77,71.74,313,100,282.34l2-2.19c6.89-7.2,14.32-8,20.54-2.22,6.05,5.62,6.47,15.53.63,22.13-6.74,7.6-13.73,15-20.64,22.44q-20.88,22.58-41.78,45.12c-1,1.09-1.94,2.25-3.07,3.57,1.81,1.33,3.67.71,5.35.72q122.23.06,244.49,0c6.22,0,11.2,1.88,14.18,7.43a16,16,0,0,1-.51,16.64A13.42,13.42,0,0,1,311,402.41a50,50,0,0,1-6.48.26H57Z"/></svg>