<svg xmlns="http://www.w3.org/2000/svg" width="1947.54" height="1034.83" viewBox="0 0 1947.54 1034.83">
  <g id="Calque_2" data-name="Calque 2" transform="translate(293.311 104.2)">
    <path id="Tracé_11796" data-name="Tracé 11796" d="M1146.764,565.824s-41.173,42.682-70.414,40.709l43.386,12.18,64.332-46.834,6.27-11.846-41.173-17.284Z" transform="translate(-153.097 -92.021)" fill="#662f18"/>
    <path id="Tracé_11797" data-name="Tracé 11797" d="M792.968,589.492S638.468,756.816,627.54,763.455c0,0,148.084-120.756,177.557-169.837l-1.321-21.358Z" transform="translate(-89.26 -96.218)" fill="#934d1e"/>
    <path id="Tracé_11798" data-name="Tracé 11798" d="M832.038,583.95S677.538,751.282,666.61,757.921c0,0,148.084-120.756,177.557-169.837l-1.261-21.324Z" transform="translate(-94.817 -95.436)" fill="#934d1e"/>
    <path id="Tracé_11799" data-name="Tracé 11799" d="M667.905,614.848S543.959,750.16,535.81,755.006c0,0,114.271-93.65,139.858-135.106l1.578-19.54Z" transform="translate(-76.212 -100.215)" fill="#934d1e"/>
    <path id="Tracé_11800" data-name="Tracé 11800" d="M178.7-104.2V281.922l1347.236,38.625.558-424.747Z" transform="translate(-25.418)" fill="#f6d2b5" opacity="0"/>
    <path id="Tracé_11801" data-name="Tracé 11801" d="M1309.579,733.2s248.417,118.646,530.5,61.819V671.39L1669.5,681.958S1307.589,718.232,1309.579,733.2Z" transform="translate(-186.27 -110.318)" fill="#f3f3f8"/>
    <path id="Tracé_11802" data-name="Tracé 11802" d="M0,688.05v355.268H1947.045l.495-185.114L400.649,769.8l-53.6-77.525H222.45l-153.6,4.409Z" transform="translate(-293.311 -112.688)" fill="#3a8bff"/>
    <path id="Tracé_11803" data-name="Tracé 11803" d="M396.74,776.868s277.512,91.395,651.393,105.35l421.745,49.853L1705.179,957l5.061-192.388L1179.731,737.72,872.772,767.742Z" transform="translate(-56.431 -119.753)" fill="#fffaf8"/>
    <path id="Tracé_11804" data-name="Tracé 11804" d="M0,634.4H41.867s231.87-34.413,278.121-21.53,42.888,38.153,42.888,38.153L176.1,692.2l-157.039-4.04L0,684.254Z" transform="translate(0 -101.584)" fill="#fffaf8"/>
    <path id="Tracé_11805" data-name="Tracé 11805" d="M178.7,283.007s205.8-8.972,241.7,10.473L178.7,312.917Z" transform="translate(-25.418 -54.782)" fill="#fffaf8" opacity="0"/>
    <path id="Tracé_11806" data-name="Tracé 11806" d="M973.66,287.262s133.382-46.422,274.321,24.06l-144.7,48.035-80.758-23.846Z" transform="translate(-138.491 -53.547)" fill="#fffaf8" opacity="0"/>
    <path id="Tracé_11807" data-name="Tracé 11807" d="M178.7,306.358s450.325-110.377,681.921-22.3L929.1,347.874l-629.52,50.608Z" transform="translate(-25.418 -50.375)" fill="#9e5a33" opacity="0"/>
    <path id="Tracé_11808" data-name="Tracé 11808" d="M715.419,384.142c-28.237,4.357-228.714-52.375-228.714-52.375C370.05,294.884,178.7,314.818,178.7,314.818V451.786l499.218-12.343Z" transform="translate(-25.418 -58.835)" fill="#9c5627" opacity="0"/>
    <path id="Tracé_11809" data-name="Tracé 11809" d="M1276.712,355.936l178.638,78.322L627.54,466.6l2.968-112.9,22.7-2.05s73.279,10.293,168.979-15.157c0,0,224.331-41.876,343.963-17.953,0,0,114.494-7.145,133.108-.163a369.189,369.189,0,0,1,87.071,30.879Z" transform="translate(-89.26 -59.08)" fill="#ffcda8" opacity="0"/>
    <path id="Tracé_11810" data-name="Tracé 11810" d="M1688,424.4l-.558-73.484s-381.2-28.915-373.221,52.838Z" transform="translate(-186.913 -64.029)" fill="#fffaf8" opacity="0"/>
    <path id="Tracé_11811" data-name="Tracé 11811" d="M1524.02,432.764c0-24.643,24.643-46.817,0-46.422-86.454,1.355-243.6-14.754-243.6-14.754-161.088-18.871-244.119-12.643-264.285-10.516a42.262,42.262,0,0,1-9.255,0c-65.19-7.437-308.726,32.518-308.726,32.518L556.456,411.148a42.392,42.392,0,0,0-9.2,2.17c-17.267,6.262-116.6,10.516-130.611,11.082a30.414,30.414,0,0,0-3.3.266c-42.485,4.778-130.251-13.373-145.588-16.649a44.815,44.815,0,0,0-4.769-.746l-86.2-7.72c-25.99-2.633,0,21.693,0,47.812V571.121a44.121,44.121,0,0,0,44.106,44.115l1259.006.077A44.106,44.106,0,0,0,1524.02,571.2Z" transform="translate(-23.502 -65.795)" fill="#eeffe4" opacity="0"/>
    <path id="Tracé_11812" data-name="Tracé 11812" d="M580.987,486.388l-54.9,1.167s664.946-212.107,877.414-7.66v55.892Z" transform="translate(-74.83 -70.432)" fill="#f3f3f8" opacity="0"/>
    <path id="Tracé_11813" data-name="Tracé 11813" d="M1525.936,503.013a5.893,5.893,0,0,0-5.766-5.893l-483.108-10.55H792.558l-132.7,10.662h-.352L184.473,507.388a5.893,5.893,0,0,0-5.773,5.893V627.723a5.893,5.893,0,0,0,5.833,5.893l1335.45,14.325a5.893,5.893,0,0,0,5.953-5.893Z" transform="translate(-25.418 -84.03)" fill="#ffcda8" opacity="0"/>
    <path id="Tracé_11814" data-name="Tracé 11814" d="M219.5,455.116s174.383-7.72,257.183,41.5L178.7,501.976V454.67Z" transform="translate(-25.418 -79.492)" fill="#9f5b2f" opacity="0"/>
    <path id="Tracé_11815" data-name="Tracé 11815" d="M1487.118,700.156,1359.56,721.162,1010.97,739,423.92,747.641l-52.165-34.559c-33.124-50.522-111.777-6-111.777-6C55.466,706.434,0,665.888,0,665.888H101.829s89.424-6,179.68-27.92l66.248-18.613h10.771l91.08-39.852h9.926l48.852-18.013s7.48-6.648,22.364-3.989l59.292-25.261" transform="translate(-293.311 -90.526)" fill="#f3f3f8"/>
    <path id="Tracé_11816" data-name="Tracé 11816" d="M623.735,589.538s-164.1,157.923-175.4,163.9c0,0,154.946-111.809,187.224-159.1V573Z" transform="translate(-63.771 -96.323)" fill="#3a8bff"/>
    <path id="Tracé_11817" data-name="Tracé 11817" d="M789.475,567.941S644.119,743.277,633.56,750.482c0,0,141.436-128.476,168.207-179.084l-2.393-21.238Z" transform="translate(-90.116 -93.075)" fill="#3a8bff"/>
    <path id="Tracé_11818" data-name="Tracé 11818" d="M819.447,568.9S672.229,742.631,661.55,749.725c0,0,142.826-126.949,170.146-177.239l-2.162-21.255Z" transform="translate(-94.097 -93.227)" fill="#3a8bff"/>
    <path id="Tracé_11819" data-name="Tracé 11819" d="M1112.943,745.633l40.495-3.843,6.931-8.149,48.395-38.016-1.535-12.163-19.943-8.972-33.9,11.631-42.356,27.912Z" transform="translate(-158.03 -110.759)" fill="#fffaf8"/>
    <path id="Tracé_11820" data-name="Tracé 11820" d="M1085,673.458l81.831-6.528,23.262,20.44-22.268,4.649-46.688,24.6-19.4,27.371L990.57,754.542l26.376-21.976Z" transform="translate(-140.896 -109.684)" fill="#3a8bff"/>
    <path id="Tracé_11821" data-name="Tracé 11821" d="M544.223,581.423v13.347L499.259,600.3H436.779l-23.923,25.381-18.613,14.29L220.28,647.951l90.211-28.589h8.638l73.116-39.852h7.977l57.17-21.959,47.6-25.261,30.828,18.519Z" transform="translate(-31.332 -90.533)" fill="#3a8bff"/>
    <path id="Tracé_11822" data-name="Tracé 11822" d="M568.855,586.823s-164.1,157.923-175.4,163.9c0,0,154.946-111.809,187.224-159.1V570.26Z" transform="translate(-55.965 -95.934)" fill="#3a8bff"/>
    <path id="Tracé_11823" data-name="Tracé 11823" d="M559.106,530.057s35.228-23.263,109-8.638c0,0,95.718,21.264,101.7,23.923,0,0,35.9-3.98,59.186,7.977l87.74,23.957,95.709,29.224,17.284,1.99,5.318,2.659,98.377,24.592s63.809,19.943,73.767,23.263l185.448,20.586-134.266,19.934s-2-6-14.29-4.821l-8.972-1.827-13.3-.995-10.971-5.318-8.638,2.659-11.3,1.33,6-6.648s-44.2-8.972-57.83-9.307l-13.287-1.99-2-2.325-3.654-.335-2-1.664-50.514-9.307s-17.284-1.33-20.269-4.289l-28.255-2.994-51.92-2.659s-65.138-10.636-81.093-9.307c0,0-63.14-1.33-70.457-8.638l-8.638-6-23.228-2.642-6.648-3.32-46.534-7.308s-32.595,1.818-39.217-3.748c0,0-6.639-12.206-26.591-10.216,0,0-31.24-.66-40.546-10.636l-25.887-3.989s-37.887-21.933-37.227-24.592C561.1,558.638,542.491,545.342,559.106,530.057Z" transform="translate(-78.544 -88.3)" fill="#fffaf8"/>
    <path id="Tracé_11824" data-name="Tracé 11824" d="M1674.746,673.115,1656.8,686.908l-8.972,1.827,17.018-18.2,13.887-12.7,9.47,3.157Z" transform="translate(-234.383 -108.389)" fill="#fffaf8"/>
    <path id="Tracé_11825" data-name="Tracé 11825" d="M1656.573,668.741l-17.018,18.2-49.9,4.169,20.981-30.348,5.987-15.534,47.366,18.613Z" transform="translate(-226.108 -106.597)" fill="#3a8bff"/>
    <path id="Tracé_11826" data-name="Tracé 11826" d="M1658.29,685.944h19.943l10.636-10.808,9.8-9.453-17.618-14.633-2.822,14.453Z" transform="translate(-235.871 -107.425)" fill="#3a8bff"/>
    <path id="Tracé_11827" data-name="Tracé 11827" d="M1480.385,627.03l-82.465,60.978,120.644,7.48,28.915-3.989,22.731-35.614Z" transform="translate(-198.837 -104.008)" fill="#3a8bff"/>
    <path id="Tracé_11828" data-name="Tracé 11828" d="M973.66,577.342l22.1-9.976h7.806l10.971-5.7,5.481-1.209,5.816-4.057,7.814-1.167,8.14-6.854,11.966-.918,7.986-2.7,4.8-3.654h11.8l19.308-6.648,30.511-3.242,2.024,12.884-42.271,25.261-63.749,14.29-12.729,6.33Z" transform="translate(-138.491 -90.381)" fill="#f3f3f8"/>
    <path id="Tracé_11829" data-name="Tracé 11829" d="M1087.77,542.747s-24.429,7.128-41.378,19.351S987.3,583.654,987.3,583.654l74.986,22.894,100.753,5.241,48.892-45.461-46.362-23.6H1087.8Z" transform="translate(-140.431 -92.018)" fill="#fffaf8"/>
    <path id="Tracé_11830" data-name="Tracé 11830" d="M1329.631,558.963c-33.35-11.057-159.535-49.3-217.546-17.061a2.1,2.1,0,0,0-.437,3.311c8.835,8.706,54.125,41.636,217.6,17.884a2.11,2.11,0,0,0,.386-4.134Z" transform="translate(-158.03 -90.1)" fill="#fffaf8"/>
    <path id="Tracé_11831" data-name="Tracé 11831" d="M1074.72,609.757s61.45.523,105.273-35.048c0,0,180.13-17.155,205.194-5.147l54.039,25.424,10.8,14.779-15.285,17.155-73.287,47.915-79.978-8.886Z" transform="translate(-152.866 -95.228)" fill="#f3f3f8"/>
    <path id="Tracé_11832" data-name="Tracé 11832" d="M1572.28,694.088l17.447-3.491,18.433-29.833V649.725l-17.944-4.495Z" transform="translate(-223.637 -106.597)" fill="#fffaf8"/>
    <path id="Tracé_11833" data-name="Tracé 11833" d="M1430.31,568.28s27.388,5.026,37.356,32.938c0,0,17.284,30.579,77.773,41.215l111,19.274h8.629l7.806,6.982,31.077-2.333,59.494-6s-49.853-22.6-59.494-22.6l-72.91-25.922s-143.735-44.2-153.042-41.541Z" transform="translate(-203.444 -95.652)" fill="#fffaf8"/>
    <path id="Tracé_11834" data-name="Tracé 11834" d="M1470.855,894.268c-.592-2.153-.858-4.246-1.372-6.476-.54-1.939-.052-3.371.249-5.447a15.243,15.243,0,0,0-.214-5.635,36.361,36.361,0,0,0-1.158-3.851c-1.415-3.731-3.276-7.934-5.927-10.362-2.5-2.316-5.4-3.594-7-6.862a6.963,6.963,0,0,0-4.7-4.58c-3.371-1.475-5.678-.609-9.375.094a11.022,11.022,0,0,1-7.4-.635c-1.021-.506-2.007-1.209-3.122-1.716-3.585-1.415-6-.266-8.681,2.265-2.17,2.222-3.783,4.752-5.833,6.862-2.573,2.753-6.124,4.289-9.032,6.673,0,0-2.316,1.827-3.5,1.887-2.831.137-5.344.781-8.226-.086-3.028-.858-5.207-3-7-5.567-2.462-3.577-2.573-9.3-5.824-12.283l.189.154c.3-.36,1.012-1.441.515-1.844-.36-.3-2.05.172-2.3.463l1.2.926a7.6,7.6,0,0,0-1.347-.763,9.075,9.075,0,0,0,.24-2.016c-.421-.772-1.964.5-2.239.9a3.01,3.01,0,0,0-.446.918l.086-.609c-2.359-.463-4.589.626-6.948.206a14.528,14.528,0,0,0-3.319-.618,9.2,9.2,0,0,0-3.431.815,2.248,2.248,0,0,0-1.338,1.227,2.073,2.073,0,0,1-.386.763c-.335.352-.781.5-1.064.978-.532.918-.1,1.33.583,1.475h-.12c-.172,1.072,2.676,1.364,3.311,1.407a3.768,3.768,0,0,1,1.827.249c.515.335.72.789,1.115,1.1a4.9,4.9,0,0,0,1.879.935c.48.094.986.232,1.467.326a7.621,7.621,0,0,1,1.561.189c.557.266.686.806.918,1.347a1.716,1.716,0,0,0,.549,1.184,17.348,17.348,0,0,1,4.88,6.956,19.429,19.429,0,0,0,3.251,4.984,25.892,25.892,0,0,0,2.359,2.573c1.192.952,2.5,2.282,3.783,3.105a32,32,0,0,0,15.989,4.658l.66-.06a23.69,23.69,0,0,0,1.716,3.534,4.289,4.289,0,0,1-.154,4.469c-.54,1.038-2.393,5.147-3.174,7.2a43.186,43.186,0,0,1-2.479,4.606c-1.184,1.9-2.668,3.748-3.431,5.841s-.746,4.289-1.715,6.279c-1.124,2.119-2.728,4.04-4.031,6-.111.146-.309.386-.523.669-.6.772-1.39,1.9-1.209,2.453s3.019.695,3.705.317c.858-.446,1.484-1.716,2.016-3.045.635-1.6,1.107-3.388,1.561-4.289,1.064-2.333,2.17-4.863,4.417-6.459,2.462-1.655,2.882-3.808,4.049-6.639a41.57,41.57,0,0,1,3.225-6.082,21.613,21.613,0,0,1,4.409-4.615l1.089-.609a14.213,14.213,0,0,1,3.165,6.416c1.081,6.416,3.105,12.232,3.56,18.734a30.831,30.831,0,0,1-.129,4.52,6.261,6.261,0,0,1-.609,2.007,5.912,5.912,0,0,0-.592,1.93c-.068,1.407,1.716.772,3.217.858,1.776.249,1.407-.06,1.244-1.818,0-.377-.06-.738-.077-1.107a76.336,76.336,0,0,1-.206-7.72c.146-2.822,1.192-5.567,1.218-8.3-.12-5.147-4.169-10.379-3.354-15.611a5.345,5.345,0,0,1,.858-2.4l.257-.583c3.517.772,7.377.2,10.756-.395,4.52-.746,11.219-3.079,15.92-2.779a4.771,4.771,0,0,1,1.647.42c-1.347,5.335-1.167,10.147,1.57,14.857,3.105,5.284,4,8.861.918,14.625-1.767,3.32-2.23,4.752-3.431,7.068a8.841,8.841,0,0,1-1.913,2.11,7.969,7.969,0,0,0-.952.995c-1.209,1.492-1.124,1.407.618,1.844s2.47.858,3.38-.661a7.37,7.37,0,0,0,.618-1.407,8,8,0,0,1,.858-1.87,52.106,52.106,0,0,0,3.8-6.373c1.038-2.136,1.844-2.831,2.771-4.992v1.964a34.051,34.051,0,0,1-1.638,8.226,26.784,26.784,0,0,1-1.878,3.834,8.436,8.436,0,0,0-1.115,3.259c.781.146,2.024.549,2.925.626,1.415.077,1.141.429,1.527-1.021q.291-1.275.454-2.573a31.638,31.638,0,0,1,.772-4.289,37.739,37.739,0,0,1,3.431-7.874c1.106-2.024.094-4.666-.086-6.862-.909-6.794,1.432-13.553,2.23-20.217l.6-2.119.317.858a18.764,18.764,0,0,1,.36,7.18,7.806,7.806,0,0,0-.086,4.049c.377,1.716,1.544,3.054,1.51,4.778C1470.426,898.042,1471.669,896.867,1470.855,894.268Z" transform="translate(-193.715 -135.044)" fill="#264abd"/>
    <path id="Tracé_11835" data-name="Tracé 11835" d="M1437.334,814.3a3.809,3.809,0,0,1,2.659-.909,6.175,6.175,0,0,1,2.625.592,4.856,4.856,0,0,1,1.913,2.222s1.2,1.467,1.029,2.127a6.46,6.46,0,0,1-1.3,1.776l-.583,1.3s1.27,2.119,1.364,2.2,1.535.343,2.033,3.2a25.444,25.444,0,0,1-.532,10.962,33.99,33.99,0,0,1-3.311,7.205c-.377.412-2.222,2.247-2.222,2.247l-2.359-.232s-4.744.2-6.6,6.313-2.436,8.638-2.771,8.578-4.289-1.784-4.984-1.844-3.037-3.345-3.037-3.345.429-8.835,1.51-10.636,1.5-2.668,3.294-3.723.858-1.038,1.458-2.213a4.17,4.17,0,0,1,2.016-2.162c1.081-.678,4.04-2.179,4.04-2.179l.566-2.307s-.283-4.975,1.381-7.059a29.154,29.154,0,0,0,2.5-3.534.643.643,0,0,1-.858-.575,4.29,4.29,0,0,0-.515-1.4s-.858-.309-.618-.738,1.956-2.273,1.046-3.491-.4-1.836-.4-1.836Z" transform="translate(-202.157 -130.515)" fill="#264abd"/>
  </g>
</svg>
