<svg xmlns="http://www.w3.org/2000/svg" width="1929.15" height="671.151" viewBox="0 0 1929.15 671.151">
  <g id="illu_voiture" transform="translate(27.579 -399.79)">
    <g id="Calque_2" data-name="Calque 2" transform="translate(-450.34 399.79)">
      <path id="Tracé_11735" data-name="Tracé 11735" d="M-3.6,399.79s-24.223,102.764,212.767,57.635,605.368-75.937,713.642,11.432,649.663,54.084,758.406,0,242.726,13.418,242.726,13.418V601.7L-3.6,590.344Z" transform="translate(427.062 -399.79)" fill="#f3f3f8"/>
      <path id="Tracé_11736" data-name="Tracé 11736" d="M-3.6,602.261c345.765,0,333.268-78.719,565.758-78.719s24.85,54.477,137.5,54.477,456.428-96.923,604.974-54.477,125.3,111.987,420.136,90.089Z" transform="translate(426.361 -403.294)" fill="#fffaf8"/>
      <path id="Tracé_11737" data-name="Tracé 11737" d="M-3.6,800.8,1924.639,764.61v301.306H-3.6Z" transform="translate(426.361 -394.766)" fill="#3a8bff"/>
      <path id="Tracé_11738" data-name="Tracé 11738" d="M1924.638,725.584H-3.6V612.81l1928.238,11.37Z" transform="translate(426.362 -406.157)" fill="#264abd"/>
      <path id="Tracé_11739" data-name="Tracé 11739" d="M1924.639,725.581V705.007s-52.553,17.81-242.04,0,1.527-40.048-194.077-35.781-463.452,33.1-595.884,27.927,103.341-43.224-161.563-43.224S243.73,612.78,243.73,612.78H-3.6v112.8Z" transform="translate(426.362 -406.155)" fill="#3a8bff"/>
      <path id="Tracé_11740" data-name="Tracé 11740" d="M58.448,1065.916c-5.255-70.731,112.937-49.36,126.069-113.463s123.447-24.528,194.363-37.213S460.3,850.369,631,852.749s291.535-66.482,441.247-49.861,401.919-30.039,401.919-30.039l435.012-8.239v301.306Z" transform="translate(441.824 -394.766)" fill="#264abd"/>
      <path id="Tracé_11741" data-name="Tracé 11741" d="M103.48,710.869l2.406-237.589h4.678l2.406,237.589Z" transform="translate(400.88 -407.541)" fill="#fffaf8"/>
      <path id="Tracé_11742" data-name="Tracé 11742" d="M665.21,710.869l2.406-237.589H672.3l2.406,237.589Z" transform="translate(350.713 -407.541)" fill="#f3f3f8"/>
      <path id="Tracé_11743" data-name="Tracé 11743" d="M1226.95,710.869l2.406-237.589h4.687l2.406,237.589Z" transform="translate(300.546 -407.541)" fill="#f3f3f8"/>
      <path id="Tracé_11744" data-name="Tracé 11744" d="M1788.69,710.869,1791.1,473.28h4.687l2.406,237.589Z" transform="translate(250.378 -407.541)" fill="#fffaf8"/>
      <path id="Tracé_11745" data-name="Tracé 11745" d="M111.4,473.28c9.491,12.058,96.467,109.071,248.9,104.661,143.707-4.187,238.268-90.76,248.913-104.661" transform="translate(402.378 -407.541)" fill="none" stroke="#fffaf8" stroke-miterlimit="10" stroke-width="2"/>
      <path id="Tracé_11746" data-name="Tracé 11746" d="M673.14,473.28c9.491,12.058,96.458,109.071,248.9,104.661,143.707-4.187,238.259-90.76,248.9-104.661" transform="translate(354.415 -407.541)" fill="none" stroke="#f3f3f8" stroke-miterlimit="10" stroke-width="2"/>
      <path id="Tracé_11747" data-name="Tracé 11747" d="M1234.88,473.28c9.491,12.058,96.458,109.071,248.9,104.661,143.707-4.187,238.26-90.76,248.9-104.661" transform="translate(306.452 -407.541)" fill="none" stroke="#f3f3f8" stroke-miterlimit="10" stroke-width="2"/>
      <path id="Tracé_11748" data-name="Tracé 11748" d="M1796.62,473.28c5.636,12.058,57.333,109.071,147.945,104.661,85.417-4.187,141.618-90.76,147.945-104.661" transform="translate(258.49 -407.541)" fill="none" stroke="#fffaf8" stroke-miterlimit="10" stroke-width="2"/>
      <path id="Tracé_11749" data-name="Tracé 11749" d="M-450.34,578.087c1.274-12.058,12.948-109.071,33.409-104.661,19.287,4.187,31.979,90.76,33.408,104.661" transform="translate(881.34 -407.54)" fill="none" stroke="#fffaf8" stroke-miterlimit="10" stroke-width="2"/>
      <path id="Tracé_11750" data-name="Tracé 11750" d="M-3.6,798.089V738.88h1920V761.9Z" transform="translate(434.6 -412.34)" fill="#26e8bd"/>
    </g>
    <g id="Calque_5" data-name="Calque 5" transform="translate(1099.696 594.624)">
      <ellipse id="Ellipse_31" data-name="Ellipse 31" cx="28.661" cy="27.042" rx="28.661" ry="27.042" transform="translate(54.558 103.806)" fill="#140a0f"/>
      <ellipse id="Ellipse_32" data-name="Ellipse 32" cx="28.661" cy="27.042" rx="28.661" ry="27.042" transform="translate(255.309 103.806)" fill="#140a0f"/>
      <path id="Tracé_11751" data-name="Tracé 11751" d="M1252.81,716.909c0-13.275,4.687-53.869,4.687-53.869l340.514,2.344a157.94,157.94,0,0,1,0,47.249H1594.1v14.84s0,2.236-3.185,2.236h-29.072s-1.181-24-15.547-27.731h-27.731a39.278,39.278,0,0,0-15.887,27.731H1369.958a15.771,15.771,0,0,0-12.255-12.872h-53.216s-8.391,6.065-9.035,12.872h-24.51l-.653-12.872Z" transform="translate(-1247.434 -605.875)" fill="#264abd"/>
      <ellipse id="Ellipse_33" data-name="Ellipse 33" cx="18.606" cy="17.551" rx="18.606" ry="17.551" transform="translate(64.612 113.297)" fill="#fffaf8"/>
      <ellipse id="Ellipse_34" data-name="Ellipse 34" cx="18.606" cy="17.551" rx="18.606" ry="17.551" transform="translate(265.364 113.297)" fill="#fffaf8"/>
      <path id="Tracé_11752" data-name="Tracé 11752" d="M1595.365,650.548h-4.544c-10.278,0-12.211-14.8-20.574-35.978s-185.929-14.4-241.855-14.4-54.943,11.047-54.943,11.047l88.067,1.592-90.223.939c-7.63,7.845-11.692,28.267-13.212,42.553l340.514,2.344A38.376,38.376,0,0,0,1595.365,650.548Zm-308.731-5.627h-17.255a.528.528,0,0,1-.528-.528.519.519,0,0,1,.528-.528h17.255a.519.519,0,0,1,.519.528.528.528,0,0,1-.519.528Zm0-3.328H1270.04a.528.528,0,0,1-.528-.528.518.518,0,0,1,.528-.528h16.594a.519.519,0,0,1,.519.528.528.528,0,0,1-.519.528Zm0-3.328h-15.958a.519.519,0,0,1-.528-.528.528.528,0,0,1,.528-.528h15.958a.528.528,0,0,1,.519.528.519.519,0,0,1-.519.528Zm0-3.328h-14.939a.519.519,0,0,1-.528-.528.528.528,0,0,1,.528-.528h14.939a.528.528,0,0,1,.519.528.519.519,0,0,1-.519.528Zm.573-3.328H1272.8a.528.528,0,1,1,0-1.047h14.411a.528.528,0,1,1,0,1.047Zm1.1-3.319h-14.2a.528.528,0,0,1-.528-.528.519.519,0,0,1,.528-.528h14.214a.519.519,0,0,1,.528.528.528.528,0,0,1-.528.528Zm.895-3.328H1275a.537.537,0,0,1-.528-.528.528.528,0,0,1,.528-.528h14.214a.528.528,0,0,1,.528.528.537.537,0,0,1-.528.519Zm1.047-3.328h-14.026a.537.537,0,0,1-.528-.528.528.528,0,0,1,.528-.528h14.026a.519.519,0,0,1,.528.528.528.528,0,0,1-.51.528Zm1.789-3.328h-13.848a.519.519,0,0,1-.528-.528.528.528,0,0,1,.528-.528H1292a.528.528,0,0,1,.528.528.519.519,0,0,1-.528.528Zm102.871,26.112c0,5.68-5.68,4.258-14.563,4.258,0,0-77.529.161-82.3.161s-5.448-2.29-2.254-15.529,8.525-15.529,12.792-15.529H1387.6c6.575,0,7.281,2.129,7.281,5.68Zm99.079,2.174c0,2.451-2.308,2.916-6.45,2.916s-70.668-.671-75.257-.671-6.763-1.109-6.763-5.564V620.85c0-2.612,1.225-3.068,5.072-3.068h77.4c3.838,0,5.994.895,5.994,9.214Zm77.994,2.916H1514.2c-5.144,0-5.636-3.659-5.636-11V619.66c0-2.451,2.209-1.879,5.144-1.879h46.024c4.652,0,5.877,1.628,11.262,14.313s7.81,17.417.993,17.417Z" transform="translate(-1247.99 -599.135)" fill="#f3f3f8"/>
      <path id="Tracé_11753" data-name="Tracé 11753" d="M1634.34,718.008h3.909s.376-2.684.537-4.007c0,0,7.72,2.979,7.97,6.485s0,8.131,0,10-2.746,2.129-4.625,2.129-7.791.233-7.791.233Z" transform="translate(-1287.672 -611.25)" fill="#f3f3f8"/>
      <path id="Tracé_11754" data-name="Tracé 11754" d="M1270.308,736.077v2.576H1246.8V723.41h22.864Z" transform="translate(-1246.8 -612.242)" fill="#f3f3f8"/>
      <path id="Tracé_11755" data-name="Tracé 11755" d="M1643.344,694.327c0,3.578-1.038,6.468-2.317,6.468s-2.317-2.9-2.317-6.468,1.038-6.467,2.317-6.467S1643.344,690.758,1643.344,694.327Z" transform="translate(-1288.133 -608.493)" fill="#f3f3f8"/>
    </g>
  </g>
</svg>
