<svg id="Calque_1" data-name="Calque 1" xmlns="http://www.w3.org/2000/svg" width="7499.1" height="729.59" viewBox="0 0 7499.1 729.59"><defs><style>.cls-1{fill:#f3f3f8;}.cls-2{fill:#fffaf8;}.cls-3{fill:#3a8bff;}.cls-4{fill:#264abd;}.cls-5,.cls-6{fill:none;stroke-miterlimit:10;stroke-width:2px;}.cls-5{stroke:#fffaf8;}.cls-6{stroke:#f3f3f8;}.cls-7{fill:#26e8bd;}.cls-8{fill:#140a0f;}</style></defs><title>illu_van</title><path class="cls-1" d="M4684.4,77.23c-141,60.47-842.84,97.71-983.27,0s-618-63.26-925.28-12.8c-167.48,27.5-234.34,5.87-260.5-19.49-4.61-2.48-7.53-7.1-13.45-7.34a14.87,14.87,0,0,0-1.9,0V213l2499.1,12.71V92.22S4825.37,16.77,4684.4,77.23Z" transform="translate(0 -0.14)"/><path class="cls-2" d="M2500,213c499.95,0,481.88-88,818.05-88s35.93,60.9,198.81,60.9,660-108.36,874.75-60.9,181.17,125.26,607.49,100.74Z" transform="translate(0 -0.14)"/><polygon class="cls-3" points="2499.1 433.22 4999.1 392.76 4999.1 729.59 2499.1 729.59 2499.1 433.22"/><polygon class="cls-4" points="4999.1 332.37 2499.1 332.37 2499.1 206.3 4999.1 219.01 4999.1 332.37"/><path class="cls-3" d="M4999.1,332.51v-23s-68.14,19.91-313.82,0,2-44.77-251.62-40-600.87,37-772.57,31.22,133.93-48.28-209.47-48.28-631.86-46-631.86-46H2499.1V332.51Z" transform="translate(0 -0.14)"/><path class="cls-4" d="M2579.38,729.73c-6.87-79.06,147.66-55.18,164.83-126.84s161.4-27.42,254.12-41.57,106.45-72.55,329.66-69.89,381.18-74.31,576.91-55.74,525.43-33.58,525.43-33.58l568.77-9.2V729.73Z" transform="translate(0 -0.14)"/><polygon class="cls-2" points="2900.96 338.94 2903.66 73.34 2908.89 73.34 2911.58 338.94 2900.96 338.94"/><polygon class="cls-1" points="3462.7 338.94 3465.39 73.34 3470.63 73.34 3473.32 338.94 3462.7 338.94"/><polygon class="cls-1" points="4024.44 338.94 4027.13 73.34 4032.37 73.34 4035.06 338.94 4024.44 338.94"/><polygon class="cls-2" points="4586.18 338.94 4588.87 73.34 4594.1 73.34 4596.8 338.94 4586.18 338.94"/><path class="cls-5" d="M2908.89,73.48c10.61,13.49,107.84,121.93,278.25,117,160.65-4.69,266.36-101.46,278.25-117" transform="translate(0 -0.14)"/><path class="cls-6" d="M3470.63,73.48c10.61,13.49,107.83,121.93,278.25,117,160.65-4.68,266.35-101.45,278.25-117" transform="translate(0 -0.14)"/><path class="cls-6" d="M4032.37,73.48c10.6,13.49,107.83,121.93,278.25,117C4471.27,185.76,4577,89,4588.87,73.48" transform="translate(0 -0.14)"/><path class="cls-5" d="M4594.1,73.48c10.61,13.49,107.84,121.93,278.25,117C5033,185.76,5138.71,89,5150.61,73.48" transform="translate(0 -0.14)"/><path class="cls-5" d="M2347.15,73.49C2357.76,87,2455,195.41,2625.4,190.45c160.65-4.69,266.36-101.46,278.26-117" transform="translate(0 -0.14)"/><polygon class="cls-7" points="2499.1 415.51 2499.1 349.32 4999.1 349.32 4999.1 375.06 2499.1 415.51"/><ellipse class="cls-8" cx="4137.32" cy="345.47" rx="32.04" ry="30.23"/><ellipse class="cls-8" cx="4361.74" cy="345.47" rx="32.04" ry="30.23"/><path class="cls-4" d="M4050.3,323.47c0-14.84,5.24-60.23,5.24-60.23l380.66,2.62s4.36,23.14,0,52.82h-4.37v16.59s0,2.5-3.56,2.5h-32.5s-1.32-26.82-17.38-31h-31s-15.87,10.39-17.76,31H4181.26s-1.44-11.67-13.7-14.38h-59.5s-9.37,6.78-10.09,14.38h-27.41l-.72-14.38Z" transform="translate(0 -0.14)"/><ellipse class="cls-2" cx="4137.32" cy="345.47" rx="20.8" ry="19.62"/><ellipse class="cls-2" cx="4361.74" cy="345.47" rx="20.8" ry="19.62"/><path class="cls-1" d="M4432.62,256.82h-5.08c-11.5,0-13.65-16.54-23-40.22s-207.84-16.1-270.36-16.1-61.42,12.35-61.42,12.35l98.45,1.77-100.86,1.06c-8.53,8.77-13.08,31.59-14.77,47.56l380.66,2.62C4434.25,259.44,4432.62,256.82,4432.62,256.82Zm-345.12-6.3h-19.28a.58.58,0,0,1-.59-.59.59.59,0,0,1,.59-.59h19.28a.59.59,0,0,1,.59.59A.58.58,0,0,1,4087.5,250.52Zm0-3.72H4069a.59.59,0,1,1,0-1.17h18.54a.59.59,0,1,1,0,1.17Zm0-3.71h-17.84a.59.59,0,0,1-.58-.59.58.58,0,0,1,.58-.59h17.84a.58.58,0,0,1,.59.59A.59.59,0,0,1,4087.5,243.09Zm0-3.72h-16.72a.59.59,0,0,1-.58-.59.58.58,0,0,1,.58-.59h16.72a.58.58,0,0,1,.59.59A.59.59,0,0,1,4087.5,239.37Zm.65-3.72H4072a.58.58,0,0,1-.59-.59.59.59,0,0,1,.59-.59h16.11a.59.59,0,0,1,.59.59A.58.58,0,0,1,4088.15,235.65Zm1.23-3.72h-15.9a.59.59,0,0,1-.59-.59.6.6,0,0,1,.59-.59h15.9a.59.59,0,0,1,.59.59A.58.58,0,0,1,4089.38,231.93Zm1-3.72h-15.89a.59.59,0,1,1,0-1.17h15.89a.59.59,0,1,1,0,1.17Zm1.17-3.72h-15.68a.59.59,0,1,1,0-1.17h15.68a.59.59,0,1,1,0,1.17Zm1.95-3.71H4078a.59.59,0,0,1-.59-.59.58.58,0,0,1,.59-.59h15.48a.58.58,0,0,1,.59.59A.59.59,0,0,1,4093.5,220.78Zm115,29.18c0,6.36-6.35,4.77-16.28,4.77l-92,.17c-5.3,0-6.09-2.55-2.52-17.35s9.53-17.36,14.29-17.36h88.34c7.34,0,8.14,2.38,8.14,6.35Zm110.76,2.43c0,2.75-2.58,3.26-7.22,3.26s-79-.75-84.13-.75-7.55-1.23-7.55-6.21V223.62c0-2.92,1.37-3.43,5.66-3.43h86.54c4.29,0,6.7,1,6.7,10.3Zm87.19,3.26h-64.59c-5.75,0-6.3-4.08-6.3-12.29V222.28c0-2.73,2.46-2.09,5.75-2.09h51.45c5.2,0,6.57,1.82,12.59,16.05S4414.11,255.65,4406.45,255.65Z" transform="translate(0 -0.14)"/><path class="cls-1" d="M4431.83,318.68h4.37s.42-2.94.59-4.47c0,0,8.64,3.33,8.92,7.24s0,9.09,0,11.19-3.08,2.38-5.17,2.38-8.71.25-8.71.25Z" transform="translate(0 -0.14)"/><polygon class="cls-1" points="4070.56 337.63 4070.56 340.51 4044.28 340.51 4044.28 323.48 4069.84 323.48 4070.56 337.63"/><path class="cls-1" d="M4441.38,295.3c0,4-1.16,7.22-2.59,7.22s-2.59-3.23-2.59-7.22,1.15-7.23,2.59-7.23S4441.38,291.3,4441.38,295.3Z" transform="translate(0 -0.14)"/><path class="cls-1" d="M7498,.14v17.7A42.28,42.28,0,0,0,7498,.14Z" transform="translate(0 -0.14)"/><path class="cls-1" d="M7497.81,173.45c0-.19.11-.38.17-.57v-155c-5.95,30.06-46.78,84.34-275.85,46.73-307.25-50.46-784.86-84.9-925.29,12.8s-842.29,60.47-983.26,0-314.7,15-314.7,15V225.87L7498,213.16V176.31A4.48,4.48,0,0,1,7497.81,173.45Z" transform="translate(0 -0.14)"/><path class="cls-2" d="M7498,213.16c-500,0-481.89-88-818-88S6644,186,6481.12,186s-660-108.36-874.75-60.9-181.18,125.26-607.49,100.74Z" transform="translate(0 -0.14)"/><polygon class="cls-4" points="4998.88 332.5 7498.88 332.5 7498.88 206.44 4998.88 219.16 4998.88 332.5"/><path class="cls-3" d="M4998.88,332.65v-23s68.13,19.91,313.81,0-2-44.77,251.63-40,600.87,37,772.57,31.22S6203,252.55,6546.36,252.55s631.86-46,631.86-46h320.66V332.65Z" transform="translate(0 -0.14)"/><polygon class="cls-2" points="7097.01 339.08 7094.32 73.48 7089.09 73.48 7086.39 339.08 7097.01 339.08"/><polygon class="cls-1" points="6535.27 339.08 6532.58 73.48 6527.35 73.48 6524.65 339.08 6535.27 339.08"/><polygon class="cls-1" points="5973.54 339.08 5970.84 73.48 5965.61 73.48 5962.92 339.08 5973.54 339.08"/><polygon class="cls-2" points="5411.8 339.08 5409.11 73.48 5403.87 73.48 5401.18 339.08 5411.8 339.08"/><path class="cls-5" d="M7089.08,73.63c-10.6,13.48-107.83,121.92-278.25,117-160.65-4.69-266.35-101.46-278.25-117" transform="translate(0 -0.14)"/><path class="cls-6" d="M6527.35,73.62c-10.61,13.49-107.84,121.93-278.25,117-160.65-4.69-266.36-101.46-278.26-117" transform="translate(0 -0.14)"/><path class="cls-6" d="M5965.61,73.62c-10.61,13.49-107.84,121.93-278.25,117-160.65-4.69-266.36-101.46-278.25-117" transform="translate(0 -0.14)"/><path class="cls-5" d="M5403.87,73.62c-18.77,21.11-38.77,40.11-63.77,56.11-8,5-15,10-23,15-14,8-27,13-42,18-3,1-5,4-8,5-87,32-183,31-269.35-1" transform="translate(0 -0.14)"/><path class="cls-5" d="M7495.77,173.45c-55.67,17.28-112.67,22.28-171.67,13.28a419.35,419.35,0,0,1-98-27c-49-21-95-48-131.78-86.1" transform="translate(0 -0.14)"/><path class="cls-1" d="M4999.1,392.91" transform="translate(0 -0.14)"/><polygon class="cls-3" points="7499.1 433.22 4999.1 392.76 4999.1 729.59 7499.1 729.59 7499.1 433.22"/><path class="cls-4" d="M7417.81,729.73c6.87-79.06-147.66-55.18-164.83-126.84s-161.4-27.42-254.12-41.57-106.45-72.55-329.66-69.89S6288,417.12,6092.29,435.69s-525.43-33.58-525.43-33.58l-568.76-9.2V729.73Z" transform="translate(0 -0.14)"/><polygon class="cls-3" points="2500 433.22 0 392.76 0 729.59 2500 729.59 2500 433.22"/><path class="cls-4" d="M2419.72,729.73c6.86-79.06-147.67-55.18-164.84-126.84s-161.39-27.42-254.11-41.57-106.46-72.55-329.67-69.89-381.17-74.31-576.91-55.74-525.43-33.58-525.43-33.58L0,392.91V729.73Z" transform="translate(0 -0.14)"/><polygon class="cls-7" points="2500 415.51 2500 349.32 0 349.32 0 375.06 2500 415.51"/><polygon class="cls-7" points="7499.1 415.51 7499.1 349.32 4999.1 349.32 4999.1 375.06 7499.1 415.51"/><path class="cls-1" d="M2485.48,45.25a3.68,3.68,0,0,1-1.81,1.27c-27.3,24.66-94.81,44.84-258.81,17.91C1917.61,14,1440-20.47,1299.57,77.23s-842.29,60.47-983.26,0-314.7,15-314.7,15V225.73L2500.7,213V37.66C2494.62,38.23,2490.53,42.17,2485.48,45.25Z" transform="translate(0 -0.14)"/><path class="cls-2" d="M2500.7,213c-499.95,0-481.88-88-818-88s-35.93,60.9-198.81,60.9S823.89,77.53,609.1,125,427.92,250.25,1.61,225.73Z" transform="translate(0 -0.14)"/><polygon class="cls-4" points="1.61 332.37 2501.61 332.37 2501.61 206.3 1.61 219.01 1.61 332.37"/><path class="cls-3" d="M1.61,332.51v-23s68.13,19.91,313.81,0-2-44.77,251.63-40,600.86,37,772.57,31.22-133.93-48.28,209.47-48.28,631.86-46,631.86-46h320.66V332.51Z" transform="translate(0 -0.14)"/><polygon class="cls-2" points="2099.74 338.94 2097.05 73.34 2091.81 73.34 2089.12 338.94 2099.74 338.94"/><polygon class="cls-1" points="1538 338.94 1535.31 73.34 1530.08 73.34 1527.38 338.94 1538 338.94"/><polygon class="cls-1" points="976.26 338.94 973.57 73.34 968.34 73.34 965.65 338.94 976.26 338.94"/><polygon class="cls-2" points="414.53 338.94 411.84 73.34 406.6 73.34 403.91 338.94 414.53 338.94"/><path class="cls-5" d="M2091.81,73.48c-10.6,13.49-107.83,121.93-278.25,117-160.65-4.69-266.35-101.46-278.25-117" transform="translate(0 -0.14)"/><path class="cls-6" d="M1530.08,73.48c-10.61,13.49-107.84,121.93-278.25,117C1091.18,185.76,985.47,89,973.57,73.48" transform="translate(0 -0.14)"/><path class="cls-6" d="M968.34,73.48C957.73,87,860.5,195.41,690.09,190.44,529.44,185.76,423.73,89,411.84,73.48" transform="translate(0 -0.14)"/><path class="cls-5" d="M406.6,73.48c-18.77,21.11-38.77,40.11-63.77,56.11-8,5-15,10-23,15-14,8-27,13-42,18-3,1-5,4-8,5-87,32-183,31-269.35-1" transform="translate(0 -0.14)"/><path class="cls-5" d="M2502,172.36c-138.94,44.37-301.94,5.37-405-98.88" transform="translate(0 -0.14)"/></svg>