<svg id="jaugenoire" xmlns="http://www.w3.org/2000/svg" width="26.17" height="48.268" viewBox="0 0 26.17 48.268">
  <path id="Tracé_9" data-name="Tracé 9" d="M81.886,87.4V70.7A9.617,9.617,0,0,0,72.3,61.113h0A9.617,9.617,0,0,0,62.709,70.7V87.4a13.085,13.085,0,1,0,19.177,0Z" transform="translate(-59.212 -61.113)" fill="#13090f"/>
  <path id="Tracé_10" data-name="Tracé 10" d="M90.071,101.826V83.9a5.545,5.545,0,0,0-5.528-5.528h0A5.544,5.544,0,0,0,79.014,83.9v17.924a9.008,9.008,0,1,0,11.057,0Z" transform="translate(-71.496 -74.102)" fill="#25e8bc"/>
  <path id="Tracé_11" data-name="Tracé 11" d="M100.681,112.133c.008-.083.013-.166.013-.251v-21.8a2.614,2.614,0,0,0-5.228,0v21.8c0,.085,0,.168.013.251a4.558,4.558,0,1,0,5.2,0Z" transform="translate(-85.032 -80.95)" fill="#25e8bc"/>
  <path id="Tracé_12" data-name="Tracé 12" d="M95.847,210.921a4.557,4.557,0,0,0,8.039,0Z" transform="translate(-86.781 -173.85)" fill="#13090f"/>
</svg>
