<svg id="Calque_1" data-name="Calque 1" xmlns="http://www.w3.org/2000/svg" viewBox="0 0 54.93 100.93"><defs><style>.cls-1{fill:#f0856a;}.cls-2{fill:#f3f3f8;}.cls-3{fill:#ffcda8;}</style></defs><title>jauge-pleine</title><path class="cls-1" d="M47.24,55V20A20.13,20.13,0,0,0,27.17,0h0A20.13,20.13,0,0,0,7.11,20V55a27.39,27.39,0,1,0,40.13,0Z"/><path class="cls-2" d="M38.67,58V20.48A11.61,11.61,0,0,0,27.09,8.91h0A11.61,11.61,0,0,0,15.52,20.48V58a18.86,18.86,0,1,0,23.15,0Z"/><path class="cls-3" d="M32.54,65.24a4.53,4.53,0,0,0,0-.52V19.1a5.47,5.47,0,1,0-10.94,0V64.72c0,.17,0,.35,0,.52a9.55,9.55,0,1,0,10.89,0Z"/></svg>