<svg id="jaugeverte" xmlns="http://www.w3.org/2000/svg" width="13.059" height="24.086" viewBox="0 0 13.059 24.086">
  <path id="Tracé_9" data-name="Tracé 9" d="M70.526,74.228V65.9a4.8,4.8,0,0,0-4.785-4.785h0A4.8,4.8,0,0,0,60.957,65.9v8.331a6.53,6.53,0,1,0,9.57,0Z" transform="translate(-59.212 -61.113)" fill="#4f4f4f"/>
  <path id="Tracé_10" data-name="Tracé 10" d="M82.789,90.076V81.132a2.767,2.767,0,0,0-2.759-2.759h0a2.767,2.767,0,0,0-2.759,2.759v8.945a4.495,4.495,0,1,0,5.517,0Z" transform="translate(-73.519 -76.242)" fill="#e4dedd"/>
  <path id="Tracé_11" data-name="Tracé 11" d="M97.095,99.779c0-.041.006-.083.006-.125V88.777a1.3,1.3,0,0,0-2.609,0V99.653c0,.042,0,.084.006.125a2.275,2.275,0,1,0,2.6,0Z" transform="translate(-89.285 -84.218)" fill="#fff"/>
  <path id="Tracé_12" data-name="Tracé 12" d="M95.847,210.921a2.274,2.274,0,0,0,4.012,0Z" transform="translate(-91.323 -192.422)" fill="#00b248"/>
</svg>
