<?xml version="1.0" encoding="utf-8"?>
<!-- Generator: Adobe Illustrator 24.0.2, SVG Export Plug-In . SVG Version: 6.00 Build 0)  -->
<svg version="1.1" id="Calque_1" xmlns="http://www.w3.org/2000/svg" xmlns:xlink="http://www.w3.org/1999/xlink" x="0px" y="0px"
	 viewBox="0 0 54.9 100.9" style="enable-background:new 0 0 54.9 100.9;" xml:space="preserve">
<style type="text/css">
	.st0{fill:#140A0F;}
	.st1{fill:#F3F3F8;}
</style>
<title>jauge-pleine</title>
<path class="st0" d="M47.2,55V20c-0.1-11-9-20-20.1-20l0,0c-11,0-20,9-20.1,20v35C-3.2,66.1-2.6,83.4,8.5,93.7s28.4,9.7,38.7-1.4
	C57,81.8,57,65.5,47.2,55z"/>
<path class="st1" d="M38.7,58V20.5c0-6.4-5.2-11.6-11.6-11.6l0,0c-6.4,0-11.5,5.2-11.6,11.6V58c-8.2,6.4-9.7,18.2-3.3,26.5
	s18.2,9.7,26.5,3.3s9.7-18.2,3.3-26.5C41,60.1,39.9,59,38.7,58z"/>
<path class="st0" d="M32.5,65.2c0-0.2,0-0.3,0-0.5V19.1c0-3-2.4-5.5-5.5-5.5c-3,0-5.5,2.4-5.5,5.5c0,0,0,0,0,0v45.6
	c0,0.2,0,0.3,0,0.5c-4.3,3-5.4,9-2.4,13.3c3,4.3,9,5.4,13.3,2.4c4.3-3,5.4-9,2.4-13.3C34.2,66.7,33.4,65.9,32.5,65.2L32.5,65.2z"/>
</svg>
