<svg id="Calque_1" data-name="Calque 1" xmlns="http://www.w3.org/2000/svg" viewBox="0 0 54.93 100.93"><defs><style>.cls-1{fill:#264abd;}.cls-2{fill:#f3f3f8;}.cls-3{fill:#3a8bff;}</style></defs><title>jauge-vide</title><path class="cls-1" d="M47.64,54.75V19.64A20.22,20.22,0,0,0,27.48-.53h0A20.22,20.22,0,0,0,7.31,19.64V54.75a27.53,27.53,0,1,0,40.33,0Z"/><path class="cls-2" d="M39,57.78V20.08A11.66,11.66,0,0,0,27.39,8.45h0A11.66,11.66,0,0,0,15.77,20.08v37.7a18.95,18.95,0,1,0,23.25,0Z"/><path class="cls-2" d="M32.87,65.06a4.58,4.58,0,0,0,0-.53V18.69a5.5,5.5,0,1,0-11,0V64.53a4.58,4.58,0,0,0,0,.53,9.59,9.59,0,1,0,10.94,0Z"/><path class="cls-3" d="M19,77.45a9.59,9.59,0,0,0,16.91,0Z"/></svg>