<?xml version="1.0" encoding="utf-8"?>
<!-- Generator: Adobe Illustrator 24.0.2, SVG Export Plug-In . SVG Version: 6.00 Build 0)  -->
<svg version="1.1" id="Calque_1" xmlns="http://www.w3.org/2000/svg" xmlns:xlink="http://www.w3.org/1999/xlink" x="0px" y="0px"
	 viewBox="0 0 54.9 100.9" style="enable-background:new 0 0 54.9 100.9;" xml:space="preserve">
<style type="text/css">
	.st0{fill:#140A0F;}
	.st1{fill:#F3F3F8;}
</style>
<title>jauge-vide</title>
<path class="st0" d="M47.6,54.7V19.6c0-11.1-9-20.1-20.2-20.2l0,0c-11.1,0-20.1,9-20.2,20.2v35.1C-3,65.9-2.4,83.3,8.7,93.7
	s28.6,9.7,38.9-1.4C57.5,81.7,57.5,65.3,47.6,54.7z"/>
<path class="st1" d="M39,57.8V20.1c0-6.4-5.2-11.6-11.6-11.6l0,0c-6.4,0-11.6,5.2-11.6,11.6v37.7C7.5,64.2,6,76.1,12.4,84.4
	s18.3,9.8,26.6,3.3c8.3-6.4,9.8-18.3,3.3-26.6C41.4,59.9,40.3,58.7,39,57.8L39,57.8z"/>
<path class="st1" d="M32.9,65.1c0-0.2,0-0.4,0-0.5V18.7c0-3-2.5-5.5-5.5-5.5s-5.5,2.5-5.5,5.5l0,0v45.8c0,0.2,0,0.4,0,0.5
	c-4.4,3-5.4,9-2.4,13.3s9,5.4,13.3,2.4c4.4-3,5.4-9,2.4-13.3C34.6,66.5,33.7,65.7,32.9,65.1L32.9,65.1z"/>
<path class="st0" d="M19,77.4c2.5,4.7,8.3,6.4,13,3.9c1.7-0.9,3-2.3,3.9-3.9H19z"/>
</svg>
